<svg xmlns="http://www.w3.org/2000/svg" viewBox="0 0 1200 520" role="img" aria-label="">
  <defs>
    <linearGradient id="bg" x1="0" y1="0" x2="1" y2="1">
      <stop offset="0" stop-color="#0f2942"/>
      <stop offset="0.55" stop-color="#0d5d7a"/>
      <stop offset="1" stop-color="#f97316"/>
    </linearGradient>
    <linearGradient id="pipe" x1="0" y1="0" x2="1" y2="0">
      <stop offset="0" stop-color="#dff7ff"/>
      <stop offset="1" stop-color="#8be0f6"/>
    </linearGradient>
  </defs>
  <rect width="1200" height="520" fill="url(#bg)"/>
  <path d="M80 125h260a70 70 0 0 1 70 70v70a70 70 0 0 0 70 70h245" fill="none" stroke="url(#pipe)" stroke-width="42" stroke-linecap="round"/>
  <path d="M405 185h210a60 60 0 0 1 60 60v55a60 60 0 0 0 60 60h385" fill="none" stroke="#ffffff" stroke-opacity=".2" stroke-width="24" stroke-linecap="round"/>
  <path d="M130 365h260a70 70 0 0 0 70-70v-42a70 70 0 0 1 70-70h155" fill="none" stroke="#fff7ed" stroke-opacity=".6" stroke-width="30" stroke-linecap="round"/>
  <circle cx="760" cy="334" r="72" fill="#ffffff" fill-opacity=".16"/>
  <circle cx="760" cy="334" r="40" fill="#f97316" fill-opacity=".88"/>
  <path d="M760 274c30 38 54 73 54 104a54 54 0 0 1-108 0c0-31 24-66 54-104z" fill="#ffffff" fill-opacity=".92"/>
  <path d="M915 150h130a48 48 0 0 1 48 48v112" fill="none" stroke="#ffffff" stroke-opacity=".55" stroke-width="18" stroke-linecap="round"/>
  <path d="M170 80h760" stroke="#ffffff" stroke-opacity=".12" stroke-width="2"/>
  <path d="M150 440h900" stroke="#ffffff" stroke-opacity=".14" stroke-width="2"/>
  <g fill="#ffffff" fill-opacity=".22">
    <circle cx="180" cy="125" r="12"/>
    <circle cx="407" cy="185" r="10"/>
    <circle cx="675" cy="245" r="10"/>
    <circle cx="1093" cy="310" r="12"/>
  </g>
</svg>
