<svg xmlns="http://www.w3.org/2000/svg" viewBox="0 0 760 420" role="img" aria-label="">
  <rect width="760" height="420" rx="22" fill="#f8fafc"/>
  <path d="M128 278c50-92 92-152 184-174 96-24 184 5 240 69 54 62 79 112 110 179H178c-19 0-59-36-50-74z" fill="#dff7ff"/>
  <path d="M184 314c62-73 126-116 214-121 84-5 143 28 191 99" fill="none" stroke="#0e7490" stroke-width="18" stroke-linecap="round"/>
  <g fill="#f97316">
    <path d="M284 154c22 0 40 18 40 40 0 31-40 75-40 75s-40-44-40-75c0-22 18-40 40-40z"/>
    <path d="M474 178c20 0 36 16 36 36 0 28-36 68-36 68s-36-40-36-68c0-20 16-36 36-36z"/>
    <path d="M376 236c18 0 32 14 32 32 0 25-32 61-32 61s-32-36-32-61c0-18 14-32 32-32z"/>
  </g>
  <g fill="#fff">
    <circle cx="284" cy="194" r="13"/>
    <circle cx="474" cy="214" r="12"/>
    <circle cx="376" cy="268" r="10"/>
  </g>
  <path d="M90 354h580" stroke="#cbd5e1" stroke-width="14" stroke-linecap="round"/>
</svg>
