<svg xmlns="http://www.w3.org/2000/svg" viewBox="0 0 100 100">
  <defs>
    <linearGradient id="shieldGrad" x1="0" y1="0" x2="1" y2="1">
      <stop offset="0" stop-color="#F0B429"/>
      <stop offset="1" stop-color="#D99F1F"/>
    </linearGradient>
    <linearGradient id="dropGrad" x1="0" y1="0" x2="0" y2="1">
      <stop offset="0" stop-color="#7FE8DC"/>
      <stop offset="1" stop-color="#4FD1C5"/>
    </linearGradient>
    <mask id="dropMask">
      <rect x="0" y="0" width="100" height="100" fill="white"/>
      <path d="M50 30 C61 45 67 55 67 64 A17 17 0 1 1 33 64 C33 55 39 45 50 30 Z" fill="black"/>
    </mask>
  </defs>
  <path d="M50 6 L88 19 V46 C88 70 72 87 50 95 C28 87 12 70 12 46 V19 Z" fill="#0F1F1D" stroke="url(#shieldGrad)" stroke-width="5" mask="url(#dropMask)"/>
  <path d="M50 30 C61 45 67 55 67 64 A17 17 0 1 1 33 64 C33 55 39 45 50 30 Z" fill="url(#dropGrad)"/>
  <path d="M50 30 C44 38 40 45 38 51" stroke="#0F1F1D" stroke-width="2.5" stroke-linecap="round" fill="none" opacity="0.35"/>
</svg>
